# xmcd CD database file generated by OrangeCD 6.4
#
# Track frame offsets:
#	150
#	14285
#	29014
#	42621
#	64526
#	74569
#	88045
#	105775
#	115902
#	144133
#	167536
#	177415
#	188304
#	209446
#	226309
#	236643
#	253985
#	268872
#	281253
#	295482
#	311835
#	329268
#	347288
#
# Disc length: 4768 seconds
#
# Revision: 2
# Processed by: cddbd v1.5.2PL0 Copyright (c) Steve Scherf et al.
# Submitted via: OrangeCD 6.4
#
DISCID=4f129e17
DTITLE=Various Artist - Antologia polskiego bluesa cz.2
DYEAR=2009
DGENRE=Blues
TTITLE0=Andrzej Zaucha i D¿amble - Blues tego, który nie odjecha³
TTITLE1=Jan Izbiñski - Pieni¹dze albo ¿ycie
TTITLE2=Bluestemper Zbyszek Niedzielski - Walk Around
TTITLE3=Nadmiar - Ma³a uliczka
TTITLE4=Big Band Irka Dudka - Tell Me Pretty Baby
TTITLE5=Jan "Junou" Janowski - Dok¹d nios¹ mnie moje nogi
TTITLE6=Pawe³ Ostafil - My Black Woman
TTITLE7=Jacek Skubikowski - Mucha i lep
TTITLE8=Blues Band Tomasza Szukalskiego - Blues na czarn¹ godzinê
TTITLE9=Krzak i Kasa Chorych - Blues h-moll, czyli smuteczek
TTITLE10=Kwadrat i Józef Skrzek - [bez tytu³u]
TTITLE11=Polish Blues Band - No i czesc
TTITLE12=Fire Band - Niech nami zako³ysze blues
TTITLE13=RMI - Deszcz na autostradzie
TTITLE14=S³awek Wierzcholski i Monkey Business - ¯eberka
TTITLE15=Romek Puchowski - Ocieramy siê
TTITLE16=Green Grass i Jacek Siciarek - Three Hundred Pounds Of Joy
TTITLE17=Beata Kossowska i Bogdan Szweda - Crazy About You Baby Blues
TTITLE18=Scigani - Tyle dziewczyn
TTITLE19=Chicago Blues Revue - Treat Her Right
TTITLE20=Przytu³a i Kruk - Can't Be Satisfied
TTITLE21=Kapela Przyjaciela i Goscie - Zdech³e ryby
TTITLE22=Nocna Zmiana Bluesa - Babilon.pl
EXTD=
EXTT0=
EXTT1=
EXTT2=
EXTT3=
EXTT4=
EXTT5=
EXTT6=
EXTT7=
EXTT8=
EXTT9=
EXTT10=
EXTT11=
EXTT12=
EXTT13=
EXTT14=
EXTT15=
EXTT16=
EXTT17=
EXTT18=
EXTT19=
EXTT20=
EXTT21=
EXTT22=
PLAYORDER=
